<mxfile host="www.draw.io" modified="2019-11-01T18:08:43.530Z" agent="Mozilla/5.0 (Windows NT 10.0; Win64; x64) AppleWebKit/537.36 (KHTML, like Gecko) Chrome/78.0.3904.70 Safari/537.36" etag="hO27fNfoC2aAkkSKBAv3" version="12.1.9" type="github" pages="1">
  <diagram id="Hr2EmeeHGqyXgGAQhQ6v" name="Page-1">
    <mxGraphModel dx="1463" dy="821" grid="1" gridSize="10" guides="1" tooltips="1" connect="1" arrows="1" fold="1" page="1" pageScale="1" pageWidth="850" pageHeight="1100" background="#ffffff" math="0" shadow="0">
      <root>
        <mxCell id="0"/>
        <mxCell id="1" parent="0"/>
        <mxCell id="-MnNUeJvBVUiR5NXsTps-1" value="Menu" style="swimlane;fontStyle=0;childLayout=stackLayout;horizontal=1;startSize=26;fillColor=none;horizontalStack=0;resizeParent=1;resizeParentMax=0;resizeLast=0;collapsible=1;marginBottom=0;" parent="1" vertex="1">
          <mxGeometry x="340" y="40" width="140" height="78" as="geometry"/>
        </mxCell>
        <mxCell id="-MnNUeJvBVUiR5NXsTps-2" value="+ Start settings" style="text;strokeColor=none;fillColor=none;align=left;verticalAlign=top;spacingLeft=4;spacingRight=4;overflow=hidden;rotatable=0;points=[[0,0.5],[1,0.5]];portConstraint=eastwest;" parent="-MnNUeJvBVUiR5NXsTps-1" vertex="1">
          <mxGeometry y="26" width="140" height="26" as="geometry"/>
        </mxCell>
        <mxCell id="-MnNUeJvBVUiR5NXsTps-3" value="+ StartÂ " style="text;strokeColor=none;fillColor=none;align=left;verticalAlign=top;spacingLeft=4;spacingRight=4;overflow=hidden;rotatable=0;points=[[0,0.5],[1,0.5]];portConstraint=eastwest;" parent="-MnNUeJvBVUiR5NXsTps-1" vertex="1">
          <mxGeometry y="52" width="140" height="26" as="geometry"/>
        </mxCell>
        <mxCell id="-MnNUeJvBVUiR5NXsTps-29" style="edgeStyle=orthogonalEdgeStyle;rounded=0;orthogonalLoop=1;jettySize=auto;html=1;" parent="1" source="-MnNUeJvBVUiR5NXsTps-5" target="-MnNUeJvBVUiR5NXsTps-18" edge="1">
          <mxGeometry relative="1" as="geometry"/>
        </mxCell>
        <mxCell id="-MnNUeJvBVUiR5NXsTps-5" value="Setup" style="swimlane;fontStyle=1;align=center;verticalAlign=top;childLayout=stackLayout;horizontal=1;startSize=26;horizontalStack=0;resizeParent=1;resizeParentMax=0;resizeLast=0;collapsible=1;marginBottom=0;" parent="1" vertex="1">
          <mxGeometry x="330" y="160" width="160" height="60" as="geometry"/>
        </mxCell>
        <mxCell id="-MnNUeJvBVUiR5NXsTps-6" value="+ character selection" style="text;strokeColor=none;fillColor=none;align=left;verticalAlign=top;spacingLeft=4;spacingRight=4;overflow=hidden;rotatable=0;points=[[0,0.5],[1,0.5]];portConstraint=eastwest;" parent="-MnNUeJvBVUiR5NXsTps-5" vertex="1">
          <mxGeometry y="26" width="160" height="26" as="geometry"/>
        </mxCell>
        <mxCell id="-MnNUeJvBVUiR5NXsTps-7" value="" style="line;strokeWidth=1;fillColor=none;align=left;verticalAlign=middle;spacingTop=-1;spacingLeft=3;spacingRight=3;rotatable=0;labelPosition=right;points=[];portConstraint=eastwest;" parent="-MnNUeJvBVUiR5NXsTps-5" vertex="1">
          <mxGeometry y="52" width="160" height="8" as="geometry"/>
        </mxCell>
        <mxCell id="-MnNUeJvBVUiR5NXsTps-9" value="" style="endArrow=block;dashed=1;endFill=0;endSize=12;html=1;" parent="1" source="-MnNUeJvBVUiR5NXsTps-1" target="-MnNUeJvBVUiR5NXsTps-5" edge="1">
          <mxGeometry width="160" relative="1" as="geometry">
            <mxPoint x="330" y="220" as="sourcePoint"/>
            <mxPoint x="490" y="220" as="targetPoint"/>
          </mxGeometry>
        </mxCell>
        <mxCell id="-MnNUeJvBVUiR5NXsTps-31" style="edgeStyle=orthogonalEdgeStyle;rounded=0;orthogonalLoop=1;jettySize=auto;html=1;exitX=0.5;exitY=0;exitDx=0;exitDy=0;entryX=0.5;entryY=0;entryDx=0;entryDy=0;" parent="1" source="-MnNUeJvBVUiR5NXsTps-18" target="-MnNUeJvBVUiR5NXsTps-22" edge="1">
          <mxGeometry relative="1" as="geometry"/>
        </mxCell>
        <mxCell id="-MnNUeJvBVUiR5NXsTps-18" value="Game" style="swimlane;fontStyle=1;align=center;verticalAlign=top;childLayout=stackLayout;horizontal=1;startSize=26;horizontalStack=0;resizeParent=1;resizeParentMax=0;resizeLast=0;collapsible=1;marginBottom=0;" parent="1" vertex="1">
          <mxGeometry x="330" y="290" width="160" height="158" as="geometry"/>
        </mxCell>
        <mxCell id="-MnNUeJvBVUiR5NXsTps-19" value="+ Characters&#xa;- Omen counter" style="text;strokeColor=none;fillColor=none;align=left;verticalAlign=top;spacingLeft=4;spacingRight=4;overflow=hidden;rotatable=0;points=[[0,0.5],[1,0.5]];portConstraint=eastwest;" parent="-MnNUeJvBVUiR5NXsTps-18" vertex="1">
          <mxGeometry y="26" width="160" height="44" as="geometry"/>
        </mxCell>
        <mxCell id="-MnNUeJvBVUiR5NXsTps-20" value="" style="line;strokeWidth=1;fillColor=none;align=left;verticalAlign=middle;spacingTop=-1;spacingLeft=3;spacingRight=3;rotatable=0;labelPosition=right;points=[];portConstraint=eastwest;" parent="-MnNUeJvBVUiR5NXsTps-18" vertex="1">
          <mxGeometry y="70" width="160" height="8" as="geometry"/>
        </mxCell>
        <mxCell id="-MnNUeJvBVUiR5NXsTps-21" value="+ Move Character&#xa;- Draw Event Card&#xa;- Draw Item Card&#xa;- Draw Omen Card" style="text;strokeColor=none;fillColor=none;align=left;verticalAlign=top;spacingLeft=4;spacingRight=4;overflow=hidden;rotatable=0;points=[[0,0.5],[1,0.5]];portConstraint=eastwest;" parent="-MnNUeJvBVUiR5NXsTps-18" vertex="1">
          <mxGeometry y="78" width="160" height="80" as="geometry"/>
        </mxCell>
        <mxCell id="-MnNUeJvBVUiR5NXsTps-22" value="Start Haunt" style="swimlane;fontStyle=1;align=center;verticalAlign=top;childLayout=stackLayout;horizontal=1;startSize=26;horizontalStack=0;resizeParent=1;resizeParentMax=0;resizeLast=0;collapsible=1;marginBottom=0;" parent="1" vertex="1">
          <mxGeometry x="600" y="330" width="160" height="104" as="geometry"/>
        </mxCell>
        <mxCell id="-MnNUeJvBVUiR5NXsTps-23" value="+ Characters&#xa;+ Haunted" style="text;strokeColor=none;fillColor=none;align=left;verticalAlign=top;spacingLeft=4;spacingRight=4;overflow=hidden;rotatable=0;points=[[0,0.5],[1,0.5]];portConstraint=eastwest;" parent="-MnNUeJvBVUiR5NXsTps-22" vertex="1">
          <mxGeometry y="26" width="160" height="44" as="geometry"/>
        </mxCell>
        <mxCell id="-MnNUeJvBVUiR5NXsTps-24" value="" style="line;strokeWidth=1;fillColor=none;align=left;verticalAlign=middle;spacingTop=-1;spacingLeft=3;spacingRight=3;rotatable=0;labelPosition=right;points=[];portConstraint=eastwest;" parent="-MnNUeJvBVUiR5NXsTps-22" vertex="1">
          <mxGeometry y="70" width="160" height="8" as="geometry"/>
        </mxCell>
        <mxCell id="-MnNUeJvBVUiR5NXsTps-25" value="+ Win Condition" style="text;strokeColor=none;fillColor=none;align=left;verticalAlign=top;spacingLeft=4;spacingRight=4;overflow=hidden;rotatable=0;points=[[0,0.5],[1,0.5]];portConstraint=eastwest;" parent="-MnNUeJvBVUiR5NXsTps-22" vertex="1">
          <mxGeometry y="78" width="160" height="26" as="geometry"/>
        </mxCell>
        <mxCell id="xuwFaDYwaYEj4jhrxcFV-9" style="edgeStyle=orthogonalEdgeStyle;rounded=0;orthogonalLoop=1;jettySize=auto;html=1;exitX=0.5;exitY=0;exitDx=0;exitDy=0;" edge="1" parent="1" source="-MnNUeJvBVUiR5NXsTps-40" target="xuwFaDYwaYEj4jhrxcFV-1">
          <mxGeometry relative="1" as="geometry"/>
        </mxCell>
        <mxCell id="-MnNUeJvBVUiR5NXsTps-40" value="Event Cards" style="swimlane;fontStyle=1;align=center;verticalAlign=top;childLayout=stackLayout;horizontal=1;startSize=26;horizontalStack=0;resizeParent=1;resizeParentMax=0;resizeLast=0;collapsible=1;marginBottom=0;" parent="1" vertex="1">
          <mxGeometry x="20" y="900" width="100" height="110" as="geometry"/>
        </mxCell>
        <mxCell id="-MnNUeJvBVUiR5NXsTps-41" value="+ Deck" style="text;strokeColor=none;fillColor=none;align=left;verticalAlign=top;spacingLeft=4;spacingRight=4;overflow=hidden;rotatable=0;points=[[0,0.5],[1,0.5]];portConstraint=eastwest;" parent="-MnNUeJvBVUiR5NXsTps-40" vertex="1">
          <mxGeometry y="26" width="100" height="26" as="geometry"/>
        </mxCell>
        <mxCell id="-MnNUeJvBVUiR5NXsTps-42" value="" style="line;strokeWidth=1;fillColor=none;align=left;verticalAlign=middle;spacingTop=-1;spacingLeft=3;spacingRight=3;rotatable=0;labelPosition=right;points=[];portConstraint=eastwest;" parent="-MnNUeJvBVUiR5NXsTps-40" vertex="1">
          <mxGeometry y="52" width="100" height="8" as="geometry"/>
        </mxCell>
        <mxCell id="-MnNUeJvBVUiR5NXsTps-43" value="+ drawDeck()&#xa;+ shuffleDeck()" style="text;strokeColor=none;fillColor=none;align=left;verticalAlign=top;spacingLeft=4;spacingRight=4;overflow=hidden;rotatable=0;points=[[0,0.5],[1,0.5]];portConstraint=eastwest;" parent="-MnNUeJvBVUiR5NXsTps-40" vertex="1">
          <mxGeometry y="60" width="100" height="50" as="geometry"/>
        </mxCell>
        <mxCell id="-MnNUeJvBVUiR5NXsTps-44" value="&lt;span style=&quot;font-family: &amp;#34;helvetica&amp;#34; , &amp;#34;arial&amp;#34; , sans-serif ; font-size: 0px&quot;&gt;%3CmxGraphModel%3E%3Croot%3E%3CmxCell%20id%3D%220%22%2F%3E%3CmxCell%20id%3D%221%22%20parent%3D%220%22%2F%3E%3CmxCell%20id%3D%222%22%20value%3D%22Event%20Cards%22%20style%3D%22swimlane%3BfontStyle%3D1%3Balign%3Dcenter%3BverticalAlign%3Dtop%3BchildLayout%3DstackLayout%3Bhorizontal%3D1%3BstartSize%3D26%3BhorizontalStack%3D0%3BresizeParent%3D1%3BresizeParentMax%3D0%3BresizeLast%3D0%3Bcollapsible%3D1%3BmarginBottom%3D0%3B%22%20vertex%3D%221%22%20parent%3D%221%22%3E%3CmxGeometry%20x%3D%2280%22%20y%3D%22480%22%20width%3D%22160%22%20height%3D%22110%22%20as%3D%22geometry%22%2F%3E%3C%2FmxCell%3E%3CmxCell%20id%3D%223%22%20value%3D%22%2B%20Deck%22%20style%3D%22text%3BstrokeColor%3Dnone%3BfillColor%3Dnone%3Balign%3Dleft%3BverticalAlign%3Dtop%3BspacingLeft%3D4%3BspacingRight%3D4%3Boverflow%3Dhidden%3Brotatable%3D0%3Bpoints%3D%5B%5B0%2C0.5%5D%2C%5B1%2C0.5%5D%5D%3BportConstraint%3Deastwest%3B%22%20vertex%3D%221%22%20parent%3D%222%22%3E%3CmxGeometry%20y%3D%2226%22%20width%3D%22160%22%20height%3D%2226%22%20as%3D%22geometry%22%2F%3E%3C%2FmxCell%3E%3CmxCell%20id%3D%224%22%20value%3D%22%22%20style%3D%22line%3BstrokeWidth%3D1%3BfillColor%3Dnone%3Balign%3Dleft%3BverticalAlign%3Dmiddle%3BspacingTop%3D-1%3BspacingLeft%3D3%3BspacingRight%3D3%3Brotatable%3D0%3BlabelPosition%3Dright%3Bpoints%3D%5B%5D%3BportConstraint%3Deastwest%3B%22%20vertex%3D%221%22%20parent%3D%222%22%3E%3CmxGeometry%20y%3D%2252%22%20width%3D%22160%22%20height%3D%228%22%20as%3D%22geometry%22%2F%3E%3C%2FmxCell%3E%3CmxCell%20id%3D%225%22%20value%3D%22%2B%20drawDeck()%26%2310%3B%2B%20shuffleDeck()%22%20style%3D%22text%3BstrokeColor%3Dnone%3BfillColor%3Dnone%3Balign%3Dleft%3BverticalAlign%3Dtop%3BspacingLeft%3D4%3BspacingRight%3D4%3Boverflow%3Dhidden%3Brotatable%3D0%3Bpoints%3D%5B%5B0%2C0.5%5D%2C%5B1%2C0.5%5D%5D%3BportConstraint%3Deastwest%3B%22%20vertex%3D%221%22%20parent%3D%222%22%3E%3CmxGeometry%20y%3D%2260%22%20width%3D%22160%22%20height%3D%2250%22%20as%3D%22geometry%22%2F%3E%3C%2FmxCell%3E%3C%2Froot%3E%3C%2FmxGraphModel%3E&lt;/span&gt;" style="text;html=1;resizable=0;points=[];autosize=1;align=left;verticalAlign=top;spacingTop=-4;" parent="1" vertex="1">
          <mxGeometry x="458" y="496" width="20" height="20" as="geometry"/>
        </mxCell>
        <mxCell id="xuwFaDYwaYEj4jhrxcFV-10" style="edgeStyle=orthogonalEdgeStyle;rounded=0;orthogonalLoop=1;jettySize=auto;html=1;exitX=0.5;exitY=0;exitDx=0;exitDy=0;" edge="1" parent="1" source="-MnNUeJvBVUiR5NXsTps-45" target="xuwFaDYwaYEj4jhrxcFV-1">
          <mxGeometry relative="1" as="geometry"/>
        </mxCell>
        <mxCell id="-MnNUeJvBVUiR5NXsTps-45" value="Item Cards" style="swimlane;fontStyle=1;align=center;verticalAlign=top;childLayout=stackLayout;horizontal=1;startSize=26;horizontalStack=0;resizeParent=1;resizeParentMax=0;resizeLast=0;collapsible=1;marginBottom=0;" parent="1" vertex="1">
          <mxGeometry x="130" y="900" width="112" height="110" as="geometry"/>
        </mxCell>
        <mxCell id="-MnNUeJvBVUiR5NXsTps-46" value="+ Deck" style="text;strokeColor=none;fillColor=none;align=left;verticalAlign=top;spacingLeft=4;spacingRight=4;overflow=hidden;rotatable=0;points=[[0,0.5],[1,0.5]];portConstraint=eastwest;" parent="-MnNUeJvBVUiR5NXsTps-45" vertex="1">
          <mxGeometry y="26" width="112" height="26" as="geometry"/>
        </mxCell>
        <mxCell id="-MnNUeJvBVUiR5NXsTps-47" value="" style="line;strokeWidth=1;fillColor=none;align=left;verticalAlign=middle;spacingTop=-1;spacingLeft=3;spacingRight=3;rotatable=0;labelPosition=right;points=[];portConstraint=eastwest;" parent="-MnNUeJvBVUiR5NXsTps-45" vertex="1">
          <mxGeometry y="52" width="112" height="8" as="geometry"/>
        </mxCell>
        <mxCell id="-MnNUeJvBVUiR5NXsTps-48" value="+ drawDeck()&#xa;+ shuffleDeck()" style="text;strokeColor=none;fillColor=none;align=left;verticalAlign=top;spacingLeft=4;spacingRight=4;overflow=hidden;rotatable=0;points=[[0,0.5],[1,0.5]];portConstraint=eastwest;" parent="-MnNUeJvBVUiR5NXsTps-45" vertex="1">
          <mxGeometry y="60" width="112" height="50" as="geometry"/>
        </mxCell>
        <mxCell id="xuwFaDYwaYEj4jhrxcFV-11" style="edgeStyle=orthogonalEdgeStyle;rounded=0;orthogonalLoop=1;jettySize=auto;html=1;exitX=0.5;exitY=0;exitDx=0;exitDy=0;" edge="1" parent="1" source="-MnNUeJvBVUiR5NXsTps-49" target="xuwFaDYwaYEj4jhrxcFV-1">
          <mxGeometry relative="1" as="geometry"/>
        </mxCell>
        <mxCell id="-MnNUeJvBVUiR5NXsTps-49" value="Omen Cards" style="swimlane;fontStyle=1;align=center;verticalAlign=top;childLayout=stackLayout;horizontal=1;startSize=26;horizontalStack=0;resizeParent=1;resizeParentMax=0;resizeLast=0;collapsible=1;marginBottom=0;" parent="1" vertex="1">
          <mxGeometry x="250" y="900" width="100" height="110" as="geometry"/>
        </mxCell>
        <mxCell id="-MnNUeJvBVUiR5NXsTps-50" value="+ Deck" style="text;strokeColor=none;fillColor=none;align=left;verticalAlign=top;spacingLeft=4;spacingRight=4;overflow=hidden;rotatable=0;points=[[0,0.5],[1,0.5]];portConstraint=eastwest;" parent="-MnNUeJvBVUiR5NXsTps-49" vertex="1">
          <mxGeometry y="26" width="100" height="26" as="geometry"/>
        </mxCell>
        <mxCell id="-MnNUeJvBVUiR5NXsTps-51" value="" style="line;strokeWidth=1;fillColor=none;align=left;verticalAlign=middle;spacingTop=-1;spacingLeft=3;spacingRight=3;rotatable=0;labelPosition=right;points=[];portConstraint=eastwest;" parent="-MnNUeJvBVUiR5NXsTps-49" vertex="1">
          <mxGeometry y="52" width="100" height="8" as="geometry"/>
        </mxCell>
        <mxCell id="-MnNUeJvBVUiR5NXsTps-52" value="+ drawDeck()&#xa;+ shuffleDeck()" style="text;strokeColor=none;fillColor=none;align=left;verticalAlign=top;spacingLeft=4;spacingRight=4;overflow=hidden;rotatable=0;points=[[0,0.5],[1,0.5]];portConstraint=eastwest;" parent="-MnNUeJvBVUiR5NXsTps-49" vertex="1">
          <mxGeometry y="60" width="100" height="50" as="geometry"/>
        </mxCell>
        <mxCell id="-MnNUeJvBVUiR5NXsTps-84" style="edgeStyle=orthogonalEdgeStyle;rounded=0;orthogonalLoop=1;jettySize=auto;html=1;exitX=0.5;exitY=0;exitDx=0;exitDy=0;" parent="1" source="-MnNUeJvBVUiR5NXsTps-53" target="-MnNUeJvBVUiR5NXsTps-5" edge="1">
          <mxGeometry relative="1" as="geometry"/>
        </mxCell>
        <mxCell id="-MnNUeJvBVUiR5NXsTps-53" value="Character" style="swimlane;fontStyle=1;align=center;verticalAlign=top;childLayout=stackLayout;horizontal=1;startSize=26;horizontalStack=0;resizeParent=1;resizeParentMax=0;resizeLast=0;collapsible=1;marginBottom=0;" parent="1" vertex="1">
          <mxGeometry x="60" y="296" width="160" height="230" as="geometry"/>
        </mxCell>
        <mxCell id="-MnNUeJvBVUiR5NXsTps-54" value="+ Might&#xa;+ Sanity&#xa;+ Speed&#xa;+ Knowledge&#xa;+ Name&#xa;+ Attack Counter&#xa;+ HandOfCards" style="text;strokeColor=none;fillColor=none;align=left;verticalAlign=top;spacingLeft=4;spacingRight=4;overflow=hidden;rotatable=0;points=[[0,0.5],[1,0.5]];portConstraint=eastwest;" parent="-MnNUeJvBVUiR5NXsTps-53" vertex="1">
          <mxGeometry y="26" width="160" height="114" as="geometry"/>
        </mxCell>
        <mxCell id="-MnNUeJvBVUiR5NXsTps-55" value="" style="line;strokeWidth=1;fillColor=none;align=left;verticalAlign=middle;spacingTop=-1;spacingLeft=3;spacingRight=3;rotatable=0;labelPosition=right;points=[];portConstraint=eastwest;" parent="-MnNUeJvBVUiR5NXsTps-53" vertex="1">
          <mxGeometry y="140" width="160" height="8" as="geometry"/>
        </mxCell>
        <mxCell id="-MnNUeJvBVUiR5NXsTps-56" value="+ attack&#xa;+ move&#xa;+ Discover room&#xa;+ use ItemÂ &#xa;+ use omen" style="text;strokeColor=none;fillColor=none;align=left;verticalAlign=top;spacingLeft=4;spacingRight=4;overflow=hidden;rotatable=0;points=[[0,0.5],[1,0.5]];portConstraint=eastwest;" parent="-MnNUeJvBVUiR5NXsTps-53" vertex="1">
          <mxGeometry y="148" width="160" height="82" as="geometry"/>
        </mxCell>
        <mxCell id="-MnNUeJvBVUiR5NXsTps-57" value="Board tiles" style="swimlane;fontStyle=1;align=center;verticalAlign=top;childLayout=stackLayout;horizontal=1;startSize=26;horizontalStack=0;resizeParent=1;resizeParentMax=0;resizeLast=0;collapsible=1;marginBottom=0;" parent="1" vertex="1">
          <mxGeometry x="600" y="495" width="160" height="110" as="geometry"/>
        </mxCell>
        <mxCell id="-MnNUeJvBVUiR5NXsTps-58" value="+ field: type" style="text;strokeColor=none;fillColor=none;align=left;verticalAlign=top;spacingLeft=4;spacingRight=4;overflow=hidden;rotatable=0;points=[[0,0.5],[1,0.5]];portConstraint=eastwest;" parent="-MnNUeJvBVUiR5NXsTps-57" vertex="1">
          <mxGeometry y="26" width="160" height="26" as="geometry"/>
        </mxCell>
        <mxCell id="-MnNUeJvBVUiR5NXsTps-59" value="" style="line;strokeWidth=1;fillColor=none;align=left;verticalAlign=middle;spacingTop=-1;spacingLeft=3;spacingRight=3;rotatable=0;labelPosition=right;points=[];portConstraint=eastwest;" parent="-MnNUeJvBVUiR5NXsTps-57" vertex="1">
          <mxGeometry y="52" width="160" height="8" as="geometry"/>
        </mxCell>
        <mxCell id="-MnNUeJvBVUiR5NXsTps-60" value="+ Draw&#xa;+ Shuffle&#xa;+ Get next valid" style="text;strokeColor=none;fillColor=none;align=left;verticalAlign=top;spacingLeft=4;spacingRight=4;overflow=hidden;rotatable=0;points=[[0,0.5],[1,0.5]];portConstraint=eastwest;" parent="-MnNUeJvBVUiR5NXsTps-57" vertex="1">
          <mxGeometry y="60" width="160" height="50" as="geometry"/>
        </mxCell>
        <mxCell id="-MnNUeJvBVUiR5NXsTps-73" style="edgeStyle=orthogonalEdgeStyle;rounded=0;orthogonalLoop=1;jettySize=auto;html=1;exitX=0.5;exitY=0;exitDx=0;exitDy=0;" parent="1" source="-MnNUeJvBVUiR5NXsTps-61" target="xuwFaDYwaYEj4jhrxcFV-5" edge="1">
          <mxGeometry relative="1" as="geometry"/>
        </mxCell>
        <mxCell id="-MnNUeJvBVUiR5NXsTps-61" value="Basement Tiles" style="swimlane;fontStyle=1;align=center;verticalAlign=top;childLayout=stackLayout;horizontal=1;startSize=26;horizontalStack=0;resizeParent=1;resizeParentMax=0;resizeLast=0;collapsible=1;marginBottom=0;" parent="1" vertex="1">
          <mxGeometry x="540" y="950" width="102" height="86" as="geometry"/>
        </mxCell>
        <mxCell id="-MnNUeJvBVUiR5NXsTps-62" value="+ field: type" style="text;strokeColor=none;fillColor=none;align=left;verticalAlign=top;spacingLeft=4;spacingRight=4;overflow=hidden;rotatable=0;points=[[0,0.5],[1,0.5]];portConstraint=eastwest;" parent="-MnNUeJvBVUiR5NXsTps-61" vertex="1">
          <mxGeometry y="26" width="102" height="26" as="geometry"/>
        </mxCell>
        <mxCell id="-MnNUeJvBVUiR5NXsTps-63" value="" style="line;strokeWidth=1;fillColor=none;align=left;verticalAlign=middle;spacingTop=-1;spacingLeft=3;spacingRight=3;rotatable=0;labelPosition=right;points=[];portConstraint=eastwest;" parent="-MnNUeJvBVUiR5NXsTps-61" vertex="1">
          <mxGeometry y="52" width="102" height="8" as="geometry"/>
        </mxCell>
        <mxCell id="-MnNUeJvBVUiR5NXsTps-64" value="+ method(type): type" style="text;strokeColor=none;fillColor=none;align=left;verticalAlign=top;spacingLeft=4;spacingRight=4;overflow=hidden;rotatable=0;points=[[0,0.5],[1,0.5]];portConstraint=eastwest;" parent="-MnNUeJvBVUiR5NXsTps-61" vertex="1">
          <mxGeometry y="60" width="102" height="26" as="geometry"/>
        </mxCell>
        <mxCell id="-MnNUeJvBVUiR5NXsTps-74" style="edgeStyle=orthogonalEdgeStyle;rounded=0;orthogonalLoop=1;jettySize=auto;html=1;exitX=0.5;exitY=0;exitDx=0;exitDy=0;" parent="1" source="-MnNUeJvBVUiR5NXsTps-65" target="xuwFaDYwaYEj4jhrxcFV-5" edge="1">
          <mxGeometry relative="1" as="geometry"/>
        </mxCell>
        <mxCell id="-MnNUeJvBVUiR5NXsTps-65" value="Ground Floor" style="swimlane;fontStyle=1;align=center;verticalAlign=top;childLayout=stackLayout;horizontal=1;startSize=26;horizontalStack=0;resizeParent=1;resizeParentMax=0;resizeLast=0;collapsible=1;marginBottom=0;" parent="1" vertex="1">
          <mxGeometry x="646.5" y="950" width="87" height="86" as="geometry"/>
        </mxCell>
        <mxCell id="-MnNUeJvBVUiR5NXsTps-66" value="+ field: type" style="text;strokeColor=none;fillColor=none;align=left;verticalAlign=top;spacingLeft=4;spacingRight=4;overflow=hidden;rotatable=0;points=[[0,0.5],[1,0.5]];portConstraint=eastwest;" parent="-MnNUeJvBVUiR5NXsTps-65" vertex="1">
          <mxGeometry y="26" width="87" height="26" as="geometry"/>
        </mxCell>
        <mxCell id="-MnNUeJvBVUiR5NXsTps-67" value="" style="line;strokeWidth=1;fillColor=none;align=left;verticalAlign=middle;spacingTop=-1;spacingLeft=3;spacingRight=3;rotatable=0;labelPosition=right;points=[];portConstraint=eastwest;" parent="-MnNUeJvBVUiR5NXsTps-65" vertex="1">
          <mxGeometry y="52" width="87" height="8" as="geometry"/>
        </mxCell>
        <mxCell id="-MnNUeJvBVUiR5NXsTps-68" value="+ method(type): type" style="text;strokeColor=none;fillColor=none;align=left;verticalAlign=top;spacingLeft=4;spacingRight=4;overflow=hidden;rotatable=0;points=[[0,0.5],[1,0.5]];portConstraint=eastwest;" parent="-MnNUeJvBVUiR5NXsTps-65" vertex="1">
          <mxGeometry y="60" width="87" height="26" as="geometry"/>
        </mxCell>
        <mxCell id="-MnNUeJvBVUiR5NXsTps-75" style="edgeStyle=orthogonalEdgeStyle;rounded=0;orthogonalLoop=1;jettySize=auto;html=1;exitX=0.5;exitY=0;exitDx=0;exitDy=0;" parent="1" source="-MnNUeJvBVUiR5NXsTps-69" target="xuwFaDYwaYEj4jhrxcFV-5" edge="1">
          <mxGeometry relative="1" as="geometry"/>
        </mxCell>
        <mxCell id="-MnNUeJvBVUiR5NXsTps-69" value="Upper Floor" style="swimlane;fontStyle=1;align=center;verticalAlign=top;childLayout=stackLayout;horizontal=1;startSize=26;horizontalStack=0;resizeParent=1;resizeParentMax=0;resizeLast=0;collapsible=1;marginBottom=0;" parent="1" vertex="1">
          <mxGeometry x="740" y="950" width="87" height="86" as="geometry"/>
        </mxCell>
        <mxCell id="-MnNUeJvBVUiR5NXsTps-70" value="+ field: type" style="text;strokeColor=none;fillColor=none;align=left;verticalAlign=top;spacingLeft=4;spacingRight=4;overflow=hidden;rotatable=0;points=[[0,0.5],[1,0.5]];portConstraint=eastwest;" parent="-MnNUeJvBVUiR5NXsTps-69" vertex="1">
          <mxGeometry y="26" width="87" height="26" as="geometry"/>
        </mxCell>
        <mxCell id="-MnNUeJvBVUiR5NXsTps-71" value="" style="line;strokeWidth=1;fillColor=none;align=left;verticalAlign=middle;spacingTop=-1;spacingLeft=3;spacingRight=3;rotatable=0;labelPosition=right;points=[];portConstraint=eastwest;" parent="-MnNUeJvBVUiR5NXsTps-69" vertex="1">
          <mxGeometry y="52" width="87" height="8" as="geometry"/>
        </mxCell>
        <mxCell id="-MnNUeJvBVUiR5NXsTps-72" value="+ method(type): type" style="text;strokeColor=none;fillColor=none;align=left;verticalAlign=top;spacingLeft=4;spacingRight=4;overflow=hidden;rotatable=0;points=[[0,0.5],[1,0.5]];portConstraint=eastwest;" parent="-MnNUeJvBVUiR5NXsTps-69" vertex="1">
          <mxGeometry y="60" width="87" height="26" as="geometry"/>
        </mxCell>
        <mxCell id="-MnNUeJvBVUiR5NXsTps-85" style="edgeStyle=orthogonalEdgeStyle;rounded=0;orthogonalLoop=1;jettySize=auto;html=1;exitX=1;exitY=0.5;exitDx=0;exitDy=0;" parent="1" source="-MnNUeJvBVUiR5NXsTps-54" target="-MnNUeJvBVUiR5NXsTps-18" edge="1">
          <mxGeometry relative="1" as="geometry"/>
        </mxCell>
        <mxCell id="KpOhhPSe9-h8m-IwMYBo-5" style="edgeStyle=orthogonalEdgeStyle;rounded=0;orthogonalLoop=1;jettySize=auto;html=1;exitX=0.5;exitY=0;exitDx=0;exitDy=0;" parent="1" source="KpOhhPSe9-h8m-IwMYBo-1" target="xuwFaDYwaYEj4jhrxcFV-5" edge="1">
          <mxGeometry relative="1" as="geometry"/>
        </mxCell>
        <mxCell id="KpOhhPSe9-h8m-IwMYBo-1" value="Outside Tiles" style="swimlane;fontStyle=1;align=center;verticalAlign=top;childLayout=stackLayout;horizontal=1;startSize=26;horizontalStack=0;resizeParent=1;resizeParentMax=0;resizeLast=0;collapsible=1;marginBottom=0;" parent="1" vertex="1">
          <mxGeometry x="450" y="950" width="80" height="86" as="geometry"/>
        </mxCell>
        <mxCell id="KpOhhPSe9-h8m-IwMYBo-2" value="+ field: type" style="text;strokeColor=none;fillColor=none;align=left;verticalAlign=top;spacingLeft=4;spacingRight=4;overflow=hidden;rotatable=0;points=[[0,0.5],[1,0.5]];portConstraint=eastwest;" parent="KpOhhPSe9-h8m-IwMYBo-1" vertex="1">
          <mxGeometry y="26" width="80" height="26" as="geometry"/>
        </mxCell>
        <mxCell id="KpOhhPSe9-h8m-IwMYBo-3" value="" style="line;strokeWidth=1;fillColor=none;align=left;verticalAlign=middle;spacingTop=-1;spacingLeft=3;spacingRight=3;rotatable=0;labelPosition=right;points=[];portConstraint=eastwest;" parent="KpOhhPSe9-h8m-IwMYBo-1" vertex="1">
          <mxGeometry y="52" width="80" height="8" as="geometry"/>
        </mxCell>
        <mxCell id="KpOhhPSe9-h8m-IwMYBo-4" value="+ method(type): type" style="text;strokeColor=none;fillColor=none;align=left;verticalAlign=top;spacingLeft=4;spacingRight=4;overflow=hidden;rotatable=0;points=[[0,0.5],[1,0.5]];portConstraint=eastwest;" parent="KpOhhPSe9-h8m-IwMYBo-1" vertex="1">
          <mxGeometry y="60" width="80" height="26" as="geometry"/>
        </mxCell>
        <mxCell id="KpOhhPSe9-h8m-IwMYBo-6" style="edgeStyle=orthogonalEdgeStyle;rounded=0;orthogonalLoop=1;jettySize=auto;html=1;exitX=0;exitY=0.5;exitDx=0;exitDy=0;" parent="1" source="-MnNUeJvBVUiR5NXsTps-58" target="-MnNUeJvBVUiR5NXsTps-18" edge="1">
          <mxGeometry relative="1" as="geometry"/>
        </mxCell>
        <mxCell id="xuwFaDYwaYEj4jhrxcFV-13" style="edgeStyle=orthogonalEdgeStyle;rounded=0;orthogonalLoop=1;jettySize=auto;html=1;exitX=0.5;exitY=0;exitDx=0;exitDy=0;" edge="1" parent="1" source="xuwFaDYwaYEj4jhrxcFV-1" target="-MnNUeJvBVUiR5NXsTps-18">
          <mxGeometry relative="1" as="geometry"/>
        </mxCell>
        <mxCell id="xuwFaDYwaYEj4jhrxcFV-14" style="edgeStyle=orthogonalEdgeStyle;rounded=0;orthogonalLoop=1;jettySize=auto;html=1;exitX=0.75;exitY=0;exitDx=0;exitDy=0;" edge="1" parent="1" source="xuwFaDYwaYEj4jhrxcFV-1" target="-MnNUeJvBVUiR5NXsTps-57">
          <mxGeometry relative="1" as="geometry"/>
        </mxCell>
        <mxCell id="xuwFaDYwaYEj4jhrxcFV-1" value="Card" style="swimlane;fontStyle=1;align=center;verticalAlign=top;childLayout=stackLayout;horizontal=1;startSize=26;horizontalStack=0;resizeParent=1;resizeParentMax=0;resizeLast=0;collapsible=1;marginBottom=0;" vertex="1" parent="1">
          <mxGeometry x="110" y="700" width="160" height="86" as="geometry"/>
        </mxCell>
        <mxCell id="xuwFaDYwaYEj4jhrxcFV-2" value="+ field: type" style="text;strokeColor=none;fillColor=none;align=left;verticalAlign=top;spacingLeft=4;spacingRight=4;overflow=hidden;rotatable=0;points=[[0,0.5],[1,0.5]];portConstraint=eastwest;" vertex="1" parent="xuwFaDYwaYEj4jhrxcFV-1">
          <mxGeometry y="26" width="160" height="26" as="geometry"/>
        </mxCell>
        <mxCell id="xuwFaDYwaYEj4jhrxcFV-3" value="" style="line;strokeWidth=1;fillColor=none;align=left;verticalAlign=middle;spacingTop=-1;spacingLeft=3;spacingRight=3;rotatable=0;labelPosition=right;points=[];portConstraint=eastwest;" vertex="1" parent="xuwFaDYwaYEj4jhrxcFV-1">
          <mxGeometry y="52" width="160" height="8" as="geometry"/>
        </mxCell>
        <mxCell id="xuwFaDYwaYEj4jhrxcFV-4" value="+ method(type): type" style="text;strokeColor=none;fillColor=none;align=left;verticalAlign=top;spacingLeft=4;spacingRight=4;overflow=hidden;rotatable=0;points=[[0,0.5],[1,0.5]];portConstraint=eastwest;" vertex="1" parent="xuwFaDYwaYEj4jhrxcFV-1">
          <mxGeometry y="60" width="160" height="26" as="geometry"/>
        </mxCell>
        <mxCell id="xuwFaDYwaYEj4jhrxcFV-12" style="edgeStyle=orthogonalEdgeStyle;rounded=0;orthogonalLoop=1;jettySize=auto;html=1;exitX=0.5;exitY=0;exitDx=0;exitDy=0;" edge="1" parent="1" source="xuwFaDYwaYEj4jhrxcFV-5" target="-MnNUeJvBVUiR5NXsTps-57">
          <mxGeometry relative="1" as="geometry"/>
        </mxCell>
        <mxCell id="xuwFaDYwaYEj4jhrxcFV-5" value="Tile" style="swimlane;fontStyle=1;align=center;verticalAlign=top;childLayout=stackLayout;horizontal=1;startSize=26;horizontalStack=0;resizeParent=1;resizeParentMax=0;resizeLast=0;collapsible=1;marginBottom=0;" vertex="1" parent="1">
          <mxGeometry x="550" y="710" width="160" height="86" as="geometry"/>
        </mxCell>
        <mxCell id="xuwFaDYwaYEj4jhrxcFV-6" value="+ field: type" style="text;strokeColor=none;fillColor=none;align=left;verticalAlign=top;spacingLeft=4;spacingRight=4;overflow=hidden;rotatable=0;points=[[0,0.5],[1,0.5]];portConstraint=eastwest;" vertex="1" parent="xuwFaDYwaYEj4jhrxcFV-5">
          <mxGeometry y="26" width="160" height="26" as="geometry"/>
        </mxCell>
        <mxCell id="xuwFaDYwaYEj4jhrxcFV-7" value="" style="line;strokeWidth=1;fillColor=none;align=left;verticalAlign=middle;spacingTop=-1;spacingLeft=3;spacingRight=3;rotatable=0;labelPosition=right;points=[];portConstraint=eastwest;" vertex="1" parent="xuwFaDYwaYEj4jhrxcFV-5">
          <mxGeometry y="52" width="160" height="8" as="geometry"/>
        </mxCell>
        <mxCell id="xuwFaDYwaYEj4jhrxcFV-8" value="+ method(type): type" style="text;strokeColor=none;fillColor=none;align=left;verticalAlign=top;spacingLeft=4;spacingRight=4;overflow=hidden;rotatable=0;points=[[0,0.5],[1,0.5]];portConstraint=eastwest;" vertex="1" parent="xuwFaDYwaYEj4jhrxcFV-5">
          <mxGeometry y="60" width="160" height="26" as="geometry"/>
        </mxCell>
      </root>
    </mxGraphModel>
  </diagram>
</mxfile>
